<svg width="24" height="32" viewBox="0 0 24 32" fill="none" xmlns="http://www.w3.org/2000/svg">
<path d="M12 0C5.3832 0 0 5.04675 0 11.25C0 13.3459 0.619267 15.3913 1.79127 17.1658L11.3169 31.5568C11.4994 31.8325 11.8209 32 12.1666 32C12.1693 32 12.1719 32 12.1745 32C12.5233 31.9974 12.8454 31.8248 13.0245 31.5443L22.3074 17.0138C23.4147 15.2768 24 13.2837 24 11.25C24 5.04675 18.6168 0 12 0ZM20.5911 16.0511L12.1515 29.2616L3.49113 16.1779C2.5156 14.7009 1.98667 12.9969 1.98667 11.25C1.98667 6.08063 6.486 1.8625 12 1.8625C17.514 1.8625 22.0067 6.08063 22.0067 11.25C22.0067 12.9451 21.5126 14.6055 20.5911 16.0511Z" fill="#EC5937"/>
<path d="M12 5.62512C8.6916 5.62512 6 8.14841 6 11.2499C6 14.3316 8.6478 16.8747 12 16.8747C15.3935 16.8747 18 14.2978 18 11.2499C18 8.14841 15.3084 5.62512 12 5.62512ZM12 15.0123C9.78287 15.0123 7.98667 13.3228 7.98667 11.2499C7.98667 9.18225 9.7944 7.48756 12 7.48756C14.2056 7.48756 16.0067 9.18225 16.0067 11.2499C16.0067 13.2926 14.2523 15.0123 12 15.0123Z" fill="#EC5937"/>
</svg>
