<svg width="24" height="24" viewBox="0 0 24 24" fill="none" xmlns="http://www.w3.org/2000/svg">
<g clip-path="url(#clip0_0_154)">
<path d="M17.2744 22.6212C15.3793 23.6204 13.4472 24 11.1363 24C5.48105 24 0.687988 19.8641 0.687988 13.2427C0.688071 6.13834 5.61851 0 13.2762 0C19.2768 0 23.3121 4.20647 23.3121 9.96529C23.3121 15.1378 20.4148 18.1728 17.1738 18.1728C15.7921 18.1728 14.5178 17.2409 14.6214 15.1379H14.4836C13.2763 17.1735 11.6897 18.1728 9.6204 18.1728C7.62107 18.1728 5.89702 16.5503 5.89702 13.8266C5.89702 9.55006 9.2751 5.65541 14.0682 5.65541C15.5505 5.65541 16.8623 5.96416 17.7576 6.37997L16.5868 12.6196C16.0701 15.2424 16.4823 16.4497 17.6203 16.483C19.3804 16.5167 21.3463 14.1718 21.3463 10.1708C21.3463 5.1724 18.3446 1.58368 12.998 1.58368C7.37928 1.58368 2.6535 6.03418 2.6535 13.0348C2.6535 18.7941 6.41351 22.3458 11.5152 22.3458C13.4811 22.3458 15.3092 21.9307 16.7241 21.1385L17.2744 22.6212ZM15.3788 7.72185C15.0336 7.62068 14.4465 7.48296 13.6543 7.48296C10.6193 7.48296 8.17045 10.3443 8.17045 13.6892C8.17045 15.208 8.92873 16.3119 10.4476 16.3119C12.4469 16.3119 14.2746 13.7594 14.6541 11.6193L15.3788 7.72185Z" fill="#EC5937"/>
</g>
<defs>
<clipPath id="clip0_0_154">
<rect width="24" height="24" fill="white"/>
</clipPath>
</defs>
</svg>
