<svg width="32" height="32" viewBox="0 0 32 32" fill="none" xmlns="http://www.w3.org/2000/svg">
<g clip-path="url(#clip0_0_107)">
<path d="M31.3651 11.6555C31.2457 10.9793 30.6037 10.5298 29.9274 10.6489L25.9909 11.343C25.7531 10.8516 25.4784 10.3767 25.1701 9.92434L27.7406 6.86088C28.1791 6.33817 28.1149 5.55522 27.5876 5.11284L24.8717 2.83404C24.3483 2.39483 23.5654 2.46075 23.1237 2.98711L20.5544 6.04911C20.0558 5.82426 19.5397 5.63652 19.0134 5.48832V1.49102C19.0134 0.8067 18.4567 0.250061 17.7727 0.250061H14.2275C13.5432 0.250061 12.9865 0.8067 12.9865 1.49102V5.48808C12.4604 5.63652 11.9443 5.82426 11.4458 6.04911L8.87645 2.98687C8.43529 2.46099 7.65233 2.39434 7.12841 2.83404L4.41235 5.11284C3.88647 5.55424 3.81982 6.3372 4.25952 6.86088L5.01245 7.75833C5.18066 7.95853 5.47924 7.98465 5.67944 7.81668C5.87988 7.64847 5.906 7.34989 5.73779 7.14969L4.98486 6.25224C4.8789 6.12577 4.89892 5.94071 5.02124 5.83817L7.73705 3.55937C7.86278 3.45391 8.04784 3.47271 8.15086 3.59575L10.9548 6.93729C11.0949 7.10428 11.3308 7.15384 11.5268 7.05765C12.1787 6.73685 12.8672 6.48612 13.573 6.31278C13.7849 6.26102 13.9336 6.07108 13.9336 5.85307V1.49102C13.9336 1.32891 14.0654 1.19708 14.2275 1.19708H17.7727C17.9348 1.19708 18.0666 1.32891 18.0666 1.49102V5.85307C18.0666 6.07108 18.2153 6.26078 18.4272 6.31278C19.133 6.48612 19.8215 6.73685 20.4733 7.05765C20.6689 7.15384 20.9052 7.10428 21.0453 6.93729C24.0929 3.30523 23.8842 3.49077 24.0746 3.49077C24.2258 3.49077 24.0348 3.36797 26.9789 5.83842C27.1017 5.9412 27.1208 6.12626 27.0151 6.25224L24.2101 9.59524C24.07 9.76199 24.0619 10.0032 24.1908 10.179C24.6208 10.7669 24.9877 11.4009 25.2812 12.0642C25.3693 12.2634 25.5817 12.3765 25.7965 12.3389L30.0919 11.5816C30.2523 11.5532 30.4044 11.6621 30.4325 11.8198C31.0905 15.5518 31.0526 15.3228 31.0526 15.363C31.0526 15.5054 30.9503 15.6267 30.8095 15.6516L26.5116 16.4094C26.297 16.4473 26.1359 16.627 26.1215 16.8445C26.0732 17.573 25.9467 18.2947 25.7458 18.9895C25.6852 19.1987 25.7751 19.4224 25.9638 19.5312L29.7411 21.7119C29.8317 21.7644 29.8881 21.862 29.8881 21.967C29.8881 22.0781 29.9865 21.8745 28.0758 25.1836C28.0236 25.2744 27.9259 25.3305 27.8207 25.3305C27.7084 25.3305 27.9831 25.4692 23.8949 23.1089C23.7065 23 23.4677 23.0339 23.3168 23.1909C22.8127 23.7158 22.2516 24.187 21.6491 24.5918C21.4684 24.7131 21.3937 24.9421 21.4682 25.1467C23.0722 29.5539 22.9784 29.2709 22.9784 29.3471C22.9784 29.4702 22.9006 29.5812 22.7848 29.6232C19.1779 30.936 19.4262 30.8537 19.353 30.8537C19.1232 30.8537 19.0729 30.6494 19.0319 30.5366C18.9423 30.291 18.6708 30.1638 18.425 30.2536C18.1791 30.343 18.0527 30.6147 18.142 30.8603C18.3767 31.5053 18.8249 31.8007 19.353 31.8007C19.6516 31.8007 19.4726 31.8366 23.1088 30.5131C23.7441 30.2819 24.0868 29.5739 23.8505 28.9228L22.4828 25.1653C22.9257 24.8457 23.3456 24.4929 23.7372 24.1113C27.4858 26.2756 27.3742 26.2776 27.821 26.2776C28.2633 26.2776 28.6754 26.0398 28.8961 25.6569C30.8483 22.2759 30.8351 22.4055 30.8351 21.967C30.8351 21.5249 30.5973 21.1128 30.2147 20.8918L26.7528 18.8933C26.8864 18.3647 26.9811 17.8242 27.0358 17.2786L30.9743 16.5842C31.5685 16.4795 31.9997 15.9658 31.9997 15.363C31.9997 15.2097 32.0355 15.4587 31.3651 11.6555Z" fill="#EC5937"/>
<path d="M18.3841 28.7568L17.5846 26.56C17.5101 26.3554 17.305 26.2278 17.0892 26.2512C16.3644 26.3286 15.6356 26.3286 14.9105 26.2512C14.6935 26.2278 14.4899 26.3554 14.4154 26.56L12.923 30.6604C12.881 30.7761 12.7699 30.854 12.6469 30.854C12.5717 30.854 12.8126 30.9328 9.21499 29.6235C9.09926 29.5813 9.02138 29.4704 9.02138 29.3474C9.02138 29.2714 8.92715 29.5551 10.5316 25.1469C10.6061 24.9424 10.5314 24.7134 10.3507 24.592C9.74819 24.1872 9.18715 23.716 8.68301 23.1911C8.53213 23.0342 8.29336 23.0002 8.10488 23.1091C4.02165 25.4665 4.2902 25.3308 4.17912 25.3308C4.07414 25.3308 3.97624 25.2744 3.92399 25.1838C2.01482 21.8772 2.11174 22.0788 2.11174 21.9673C2.11174 21.8621 2.16814 21.7644 2.25896 21.7119L6.03604 19.5312C6.22476 19.4224 6.31461 19.1987 6.25406 18.9895C6.05313 18.2947 5.92667 17.573 5.87833 16.8447C5.86392 16.6272 5.70279 16.4475 5.48819 16.4097L1.19036 15.6519C1.04949 15.627 0.94744 15.5056 0.94744 15.3633C0.94744 15.3223 0.909598 15.5513 1.56731 11.8201C1.59539 11.6624 1.74675 11.553 1.90789 11.5818L6.20352 12.3391C6.41812 12.3767 6.63052 12.2635 6.71866 12.0642C7.01211 11.4012 7.37906 10.7669 7.80899 10.1792C7.93789 10.0035 7.92983 9.76224 7.7897 9.59525L6.95499 8.60063C6.78702 8.40019 6.48843 8.37406 6.288 8.54228C6.0878 8.71049 6.06143 9.00907 6.22965 9.20927L6.82974 9.9246C6.52164 10.377 6.24674 10.8518 6.00894 11.3433C1.72136 10.5874 2.01067 10.6302 1.85588 10.6302C1.2531 10.6302 0.739677 11.0616 0.634941 11.6558C-0.0366875 15.4646 0.000177619 15.21 0.000177619 15.3633C0.000177619 15.9661 0.431573 16.4797 1.02581 16.5845L4.96427 17.2788C5.01871 17.8245 5.11344 18.365 5.24698 18.8936L1.78533 20.8921C1.19768 21.2312 0.986014 21.989 1.33123 22.5871L3.10368 25.6572C3.44401 26.2468 4.20207 26.4558 4.79874 26.1115L8.2626 24.1116C8.65444 24.4931 9.07436 24.8459 9.51723 25.1655L8.14956 28.9231C7.91201 29.5752 8.25796 30.2829 8.89101 30.5134C12.5365 31.8403 12.3497 31.801 12.6469 31.801C13.1666 31.801 13.6351 31.4729 13.8129 30.9843L15.1805 27.2263C15.7281 27.2666 16.2716 27.2666 16.8192 27.2263L17.494 29.081C17.5834 29.3266 17.8548 29.4533 18.1009 29.364C18.3468 29.2744 18.4735 29.0026 18.3841 28.7568Z" fill="#EC5937"/>
<path d="M22.7573 11.9732C22.8918 12.1973 23.183 12.2698 23.4069 12.135C23.631 12.0003 23.7036 11.7095 23.5688 11.4854C22.798 10.2029 21.7062 9.12941 20.4113 8.38064C14.5532 4.9932 7.17529 9.24343 7.17529 16.0254C7.17529 20.8916 11.134 24.8503 16 24.8503C20.8662 24.8503 24.8249 20.8916 24.8249 16.0254C24.8249 15.1323 24.6918 14.2512 24.4294 13.406C24.3517 13.1563 24.0866 13.0166 23.8369 13.0942C23.5871 13.1716 23.4474 13.437 23.5251 13.6868C23.7126 14.291 23.8249 14.9167 23.8625 15.5518H21.0026C20.9604 14.1128 20.7258 12.7368 20.3217 11.523C20.8037 11.2517 21.2622 10.9341 21.6906 10.572C22.0905 10.992 22.4489 11.4602 22.7573 11.9732ZM13.2158 8.65627C12.7143 9.24245 12.3271 9.92262 12.0207 10.6272C11.6706 10.4216 11.3349 10.1885 11.0171 9.92848C11.6709 9.39308 12.4121 8.96096 13.2158 8.65627ZM10.3154 10.5772C10.7422 10.937 11.1985 11.2529 11.6782 11.523C11.2742 12.7371 11.0395 14.113 10.9973 15.552H8.13696C8.25146 13.6272 9.06005 11.8865 10.3154 10.5772ZM8.13696 16.499H10.9973C11.0395 17.938 11.2742 19.3139 11.6782 20.5281C11.1985 20.7981 10.7422 21.114 10.3154 21.4738C9.06005 20.1645 8.25146 18.4236 8.13696 16.499ZM11.0171 22.1225C11.3349 21.8625 11.6706 21.6291 12.0207 21.4238C12.3271 22.1284 12.7143 22.8086 13.2158 23.3947C12.4121 23.0901 11.6709 22.6579 11.0171 22.1225ZM15.5266 23.8479C14.2683 23.5532 13.3779 22.1877 12.8667 20.9944C13.7033 20.6316 14.6018 20.4157 15.5266 20.3606V23.8479ZM15.5266 19.4121C14.4875 19.4673 13.477 19.7036 12.5356 20.1054C12.188 19.018 11.9851 17.7886 11.9451 16.499H15.5266V19.4121ZM15.5266 15.552H11.9451C11.9851 14.2625 12.188 13.033 12.5356 11.9453C13.477 12.3472 14.4875 12.5837 15.5266 12.6389V15.552ZM15.5266 11.6902C14.6018 11.6353 13.7033 11.4192 12.8667 11.0567C13.3796 9.85939 14.2702 8.49734 15.5266 8.2029V11.6902ZM16.4736 8.2029C17.7295 8.49709 18.6201 9.85866 19.1335 11.0567C18.2968 11.4192 17.3984 11.6353 16.4736 11.6902V8.2029ZM16.4736 12.6389C17.5127 12.5835 18.5232 12.3472 19.4646 11.9453C19.8122 13.033 20.0151 14.2625 20.0551 15.552H16.4736V12.6389ZM16.4736 16.499H20.0551C20.0151 17.7886 19.8122 19.018 19.4646 20.1057C18.5229 19.7036 17.5127 19.4673 16.4736 19.4121V16.499ZM16.4736 23.8479V20.3608C17.3984 20.4157 18.2968 20.6316 19.1335 20.9944C18.6206 22.1914 17.7297 23.5537 16.4736 23.8479ZM18.7844 23.3947C19.2858 22.8086 19.6728 22.1281 19.9792 21.4238C20.3295 21.6291 20.6652 21.8625 20.9831 22.1225C20.3291 22.6579 19.5878 23.0901 18.7844 23.3947ZM21.0029 16.499H23.8632C23.7487 18.4236 22.9401 20.1645 21.6848 21.4738C21.258 21.114 20.8017 20.7978 20.3217 20.5281C20.7258 19.3139 20.9606 17.938 21.0029 16.499ZM19.9792 10.6272C19.6691 9.91432 19.2783 9.23024 18.7746 8.6448C19.5791 8.94509 20.3266 9.37624 20.9909 9.92213C20.6706 10.1846 20.3325 10.4202 19.9792 10.6272Z" fill="#EC5937"/>
</g>
<defs>
<clipPath id="clip0_0_107">
<rect width="32" height="32" fill="white"/>
</clipPath>
</defs>
</svg>
