<svg width="32" height="32" viewBox="0 0 32 32" fill="none" xmlns="http://www.w3.org/2000/svg">
<g clip-path="url(#clip0_0_92)">
<path d="M5.317 28.4332C5.20081 28.3169 5.03956 28.2501 4.87518 28.2501C4.71081 28.2501 4.54956 28.3169 4.43331 28.4332C4.31706 28.5495 4.25018 28.7107 4.25018 28.8751C4.25018 29.0394 4.317 29.2007 4.43331 29.3169C4.54956 29.4331 4.71081 29.5001 4.87518 29.5001C5.03956 29.5001 5.20081 29.4332 5.317 29.3169C5.43325 29.2007 5.50018 29.0394 5.50018 28.8751C5.50018 28.7107 5.43331 28.5494 5.317 28.4332Z" fill="#EC5937"/>
<path d="M29.3452 11.4336C29.229 11.3172 29.0684 11.2504 28.9034 11.2504C28.739 11.2504 28.5777 11.3172 28.4615 11.4336C28.3453 11.5498 28.2784 11.7111 28.2784 11.8754C28.2784 12.0398 28.3452 12.2011 28.4615 12.3172C28.5777 12.4335 28.739 12.5004 28.9034 12.5004C29.0684 12.5004 29.229 12.4336 29.3452 12.3172C29.4621 12.2011 29.5289 12.0398 29.5289 11.8754C29.5289 11.7111 29.4621 11.5498 29.3452 11.4336Z" fill="#EC5937"/>
<path d="M31.8168 0.183062C31.6995 0.065875 31.5405 0 31.3747 0L16.0001 0.0008125C15.655 0.0008125 15.3752 0.280687 15.3752 0.625812V2.41313L9.45084 4.00056C9.1174 4.08994 8.91953 4.43262 9.0089 4.766L12.0793 16.2249L9.42315 18.8811C9.08509 18.3874 8.51747 18.0628 7.8754 18.0628H1.87559C0.841718 18.0628 0.000656128 18.9039 0.000656128 19.9377V30.125C0.000656128 31.1589 0.841718 32 1.87559 32H7.87547C8.75378 32 9.49265 31.3927 9.69515 30.5763L10.4383 31.2243C11.012 31.7246 11.747 32.0001 12.5082 32.0001H31.3748C31.72 32.0001 31.9998 31.7202 31.9998 31.3751V0.625C31.9997 0.45925 31.934 0.30025 31.8168 0.183062ZM8.50034 30.1251C8.50034 30.4696 8.21997 30.7501 7.87534 30.7501H1.87553C1.53091 30.7501 1.25053 30.4697 1.25053 30.1251V19.9378C1.25053 19.5932 1.53091 19.3128 1.87553 19.3128H4.25047V26.5125C4.25047 26.8576 4.53034 27.1375 4.87547 27.1375C5.22059 27.1375 5.50047 26.8576 5.50047 26.5125V19.3128H7.8754C8.22003 19.3128 8.5004 19.5932 8.5004 19.9378V30.1251H8.50034ZM10.378 5.04619L15.3752 3.70719V6.02313L14.9563 6.13538C14.7961 6.17831 14.6597 6.283 14.5768 6.42656C14.4939 6.57012 14.4714 6.74069 14.5143 6.90081C14.7545 7.79712 14.2207 8.72169 13.3244 8.96187C13.1641 9.00488 13.0274 9.10975 12.9446 9.25362C12.8618 9.39744 12.8395 9.56831 12.8828 9.72856L15.319 18.7497H14.0646L13.4182 16.2207C13.3976 16.1402 13.3616 16.066 13.3134 16.0015L10.378 5.04619ZM15.3752 8.88931V14.1631L14.2352 9.94219C14.7114 9.69631 15.1011 9.32844 15.3752 8.88931ZM24.3542 30.75H12.508C12.049 30.75 11.6057 30.5839 11.2597 30.2822L9.75034 28.9659V20.3217L12.479 17.5931L12.9738 19.5293C13.0446 19.806 13.2938 19.9995 13.5793 19.9995L25.8671 20.0002C26.3496 20.0002 26.7421 20.3927 26.7421 20.8752C26.7421 21.3577 26.3496 21.7502 25.8671 21.7502H19.5708C19.2257 21.7502 18.9458 22.0301 18.9458 22.3752C18.9458 22.7204 19.2257 23.0002 19.5708 23.0002H27.8233C28.3058 23.0002 28.6983 23.3927 28.6983 23.8752C28.6983 24.3577 28.3058 24.7502 27.8233 24.7502H19.5708C19.2257 24.7502 18.9458 25.0301 18.9458 25.3752C18.9458 25.7204 19.2257 26.0002 19.5708 26.0002H26.486C26.9685 26.0002 27.361 26.3927 27.361 26.8752C27.361 27.3577 26.9685 27.7502 26.486 27.7502H19.5708C19.2257 27.7502 18.9458 28.0301 18.9458 28.3752C18.9458 28.7204 19.2257 29.0002 19.5708 29.0002H24.3542C24.8367 29.0002 25.2292 29.3927 25.2292 29.8752C25.2291 30.3575 24.8366 30.75 24.3542 30.75ZM30.7498 30.75H30.7498H26.2898C26.411 30.4829 26.4791 30.1869 26.4791 29.875C26.4791 29.5631 26.411 29.2671 26.2898 29H26.486C27.6577 29 28.611 28.0468 28.611 26.8751C28.611 26.5333 28.5294 26.2104 28.3854 25.924C29.2851 25.6769 29.9482 24.8522 29.9482 23.8751C29.9482 23.4011 29.7921 22.9629 29.5288 22.6092V14.6879C29.5288 14.3428 29.2489 14.0629 28.9038 14.0629C28.5587 14.0629 28.2788 14.3428 28.2788 14.6879V21.7999C28.1319 21.7677 27.9796 21.7502 27.8232 21.7502H27.8027C27.9239 21.4832 27.992 21.1871 27.992 20.8752C27.992 19.7035 27.0387 18.7503 25.867 18.7503H24.8623C25.9292 18.2928 26.6784 17.2324 26.6784 16C26.6784 14.3507 25.3367 13.0089 23.6873 13.0089C22.0381 13.0089 20.6963 14.3507 20.6963 16C20.6963 17.2324 21.4456 18.2928 22.5123 18.7503H19.0959V6.86644C20.2124 6.62313 21.0934 5.74219 21.3367 4.62563H26.038C26.2812 5.74219 27.1622 6.62313 28.2787 6.86644V8.80956C28.2787 9.15469 28.5586 9.43456 28.9037 9.43456C29.2488 9.43456 29.5287 9.15469 29.5287 8.80956V6.30844C29.5287 5.96331 29.2488 5.68344 28.9037 5.68344C27.9758 5.68344 27.221 4.9285 27.221 4.00063C27.221 3.6555 26.9411 3.37562 26.596 3.37562H20.7787C20.4336 3.37562 20.1537 3.6555 20.1537 4.00063C20.1537 4.92856 19.3988 5.68344 18.471 5.68344C18.1258 5.68344 17.846 5.96331 17.846 6.30844V18.7502H16.6252V1.25069L30.7498 1.25V30.75ZM23.6875 17.7411C22.7274 17.7411 21.9464 16.9601 21.9464 16.0001C21.9464 15.0401 22.7275 14.2589 23.6875 14.2589C24.6475 14.2589 25.4285 15.04 25.4285 16C25.4285 16.96 24.6475 17.7411 23.6875 17.7411Z" fill="#EC5937"/>
</g>
<defs>
<clipPath id="clip0_0_92">
<rect width="32" height="32" fill="white"/>
</clipPath>
</defs>
</svg>
