<svg width="32" height="32" viewBox="0 0 32 32" fill="none" xmlns="http://www.w3.org/2000/svg">
<g clip-path="url(#clip0_0_27)">
<path d="M22.125 4H18.75V3.83911C18.75 2.84058 17.9377 2.02808 16.939 2.02808H15.78C15.2512 0.813477 14.04 0 12.6853 0H12.5647C11.21 0 9.99878 0.813477 9.46997 2.02808H8.31104C7.31226 2.02808 6.5 2.84058 6.5 3.83911V4H3.125C1.16821 4 0 4.93457 0 6.5V28.875C0 30.5981 1.40186 32 3.125 32H22.125C23.8481 32 25.25 30.5981 25.25 28.875V14.7292C25.25 14.384 24.9702 14.1042 24.625 14.1042C24.2798 14.1042 24 14.384 24 14.7292V28.875C24 29.9089 23.1589 30.75 22.125 30.75H3.125C2.09106 30.75 1.25 29.9089 1.25 28.875V6.5C1.25 6.19092 1.25 5.25 3.125 5.25H6.5V6.125C6.5 6.47021 6.77979 6.75 7.125 6.75H18.125C18.4702 6.75 18.75 6.47021 18.75 6.125V5.25H22.125C23.1589 5.25 24 6.09106 24 7.125V9.22925C24 9.57446 24.2798 9.85425 24.625 9.85425C24.9702 9.85425 25.25 9.57446 25.25 9.22925V7.125C25.25 5.40186 23.8481 4 22.125 4ZM17.5 5.5H7.75V3.83911C7.75 3.52979 8.00171 3.27808 8.31104 3.27808H9.91113C10.1934 3.27808 10.4404 3.08911 10.5144 2.81689C10.7646 1.89429 11.6079 1.25 12.5647 1.25H12.6853C13.6421 1.25 14.4854 1.89429 14.7358 2.81689C14.8096 3.08911 15.0569 3.27808 15.3389 3.27808H16.9392C17.2485 3.27808 17.5 3.52979 17.5 3.83911V5.5Z" fill="#EC5937"/>
<path d="M24.625 11.2195C24.4607 11.2195 24.2993 11.2856 24.1831 11.4019C24.0669 11.5188 24 11.6794 24 11.8438C24 12.0088 24.0669 12.1694 24.1831 12.2861C24.2993 12.4026 24.4607 12.4695 24.625 12.4695C24.7893 12.4695 24.9507 12.4026 25.0669 12.2861C25.1831 12.1699 25.25 12.0088 25.25 11.8438C25.25 11.6794 25.1831 11.5181 25.0669 11.4019C24.9507 11.2856 24.7893 11.2195 24.625 11.2195Z" fill="#EC5937"/>
<path d="M31.375 20.125C31.2107 20.125 31.0493 20.1919 30.9331 20.3081C30.8169 20.4243 30.75 20.5857 30.75 20.75C30.75 20.9143 30.8169 21.0757 30.9331 21.1919C31.0493 21.3081 31.2107 21.375 31.375 21.375C31.5393 21.375 31.7007 21.3081 31.8169 21.1919C31.9331 21.0757 32 20.9143 32 20.75C32 20.5857 31.9331 20.4243 31.8169 20.3081C31.7007 20.1919 31.5393 20.125 31.375 20.125Z" fill="#EC5937"/>
<path d="M31.9456 11.5889L29.9456 7.11963C29.8447 6.89478 29.6213 6.75 29.375 6.75C29.1287 6.75 28.9053 6.89478 28.8044 7.11963L26.8044 11.5889C26.7686 11.6689 26.75 11.7561 26.75 11.844V30.5078C26.75 31.3306 27.4194 32 28.2422 32H30.5078C31.3306 32 32 31.3306 32 30.5078V23.4792C32 23.134 31.7202 22.8542 31.375 22.8542C31.0298 22.8542 30.75 23.134 30.75 23.4792V27.8491H28V12.469H30.75V18.2375C30.75 18.5828 31.0298 18.8625 31.375 18.8625C31.7202 18.8625 32 18.5828 32 18.2375V11.844C32 11.7561 31.9814 11.6689 31.9456 11.5889ZM29.375 8.90503L30.4106 11.219H28.3394L29.375 8.90503ZM30.75 29.0991V30.5078C30.75 30.6414 30.6414 30.75 30.5078 30.75H28.2422C28.1086 30.75 28 30.6414 28 30.5078V29.0991H30.75Z" fill="#EC5937"/>
<path d="M7.35425 9C5.90674 9 4.72925 10.1775 4.72925 11.625C4.72925 13.0725 5.90674 14.25 7.35425 14.25C8.80151 14.25 9.97925 13.0725 9.97925 11.625C9.97925 10.1775 8.80151 9 7.35425 9ZM7.35425 13C6.59595 13 5.97925 12.3833 5.97925 11.625C5.97925 10.8667 6.59595 10.25 7.35425 10.25C8.1123 10.25 8.72925 10.8667 8.72925 11.625C8.72925 12.3833 8.1123 13 7.35425 13Z" fill="#EC5937"/>
<path d="M7.35425 16.5C5.90674 16.5 4.72925 17.6775 4.72925 19.125C4.72925 20.5725 5.90674 21.75 7.35425 21.75C8.80151 21.75 9.97925 20.5725 9.97925 19.125C9.97925 17.6775 8.80151 16.5 7.35425 16.5ZM7.35425 20.5C6.59595 20.5 5.97925 19.8833 5.97925 19.125C5.97925 18.3667 6.59595 17.75 7.35425 17.75C8.1123 17.75 8.72925 18.3667 8.72925 19.125C8.72925 19.8833 8.1123 20.5 7.35425 20.5Z" fill="#EC5937"/>
<path d="M7.35425 24C5.90674 24 4.72925 25.1775 4.72925 26.625C4.72925 28.0725 5.90674 29.25 7.35425 29.25C8.80151 29.25 9.97925 28.0725 9.97925 26.625C9.97925 25.1775 8.80151 24 7.35425 24ZM7.35425 28C6.59595 28 5.97925 27.3833 5.97925 26.625C5.97925 25.8667 6.59595 25.25 7.35425 25.25C8.1123 25.25 8.72925 25.8667 8.72925 26.625C8.72925 27.3833 8.1123 28 7.35425 28Z" fill="#EC5937"/>
<path d="M19.8958 13H12.7292C12.384 13 12.1042 13.2798 12.1042 13.625C12.1042 13.9702 12.384 14.25 12.7292 14.25H19.896C20.241 14.25 20.521 13.9702 20.521 13.625C20.521 13.2798 20.241 13 19.8958 13Z" fill="#EC5937"/>
<path d="M19.8958 10H12.7292C12.384 10 12.1042 10.2798 12.1042 10.625C12.1042 10.9702 12.384 11.25 12.7292 11.25H19.896C20.241 11.25 20.521 10.9702 20.521 10.625C20.521 10.2798 20.241 10 19.8958 10Z" fill="#EC5937"/>
<path d="M19.8958 20.5H12.7292C12.384 20.5 12.1042 20.7798 12.1042 21.125C12.1042 21.4702 12.384 21.75 12.7292 21.75H19.896C20.241 21.75 20.521 21.4702 20.521 21.125C20.521 20.7798 20.241 20.5 19.8958 20.5Z" fill="#EC5937"/>
<path d="M19.8958 17.5H12.7292C12.384 17.5 12.1042 17.7798 12.1042 18.125C12.1042 18.4702 12.384 18.75 12.7292 18.75H19.896C20.241 18.75 20.521 18.4702 20.521 18.125C20.521 17.7798 20.241 17.5 19.8958 17.5Z" fill="#EC5937"/>
<path d="M19.8958 28H12.7292C12.384 28 12.1042 28.2798 12.1042 28.625C12.1042 28.9702 12.384 29.25 12.7292 29.25H19.896C20.241 29.25 20.521 28.9702 20.521 28.625C20.521 28.2798 20.241 28 19.8958 28Z" fill="#EC5937"/>
<path d="M19.8958 25H12.7292C12.384 25 12.1042 25.2798 12.1042 25.625C12.1042 25.9702 12.384 26.25 12.7292 26.25H19.896C20.241 26.25 20.521 25.9702 20.521 25.625C20.521 25.2798 20.241 25 19.8958 25Z" fill="#EC5937"/>
</g>
<defs>
<clipPath id="clip0_0_27">
<rect width="32" height="32" fill="white"/>
</clipPath>
</defs>
</svg>
