<svg width="24" height="24" viewBox="0 0 24 24" fill="none" xmlns="http://www.w3.org/2000/svg">
<g clip-path="url(#clip0_0_160)">
<path d="M17.6719 0H6.32812C2.8388 0 0 2.8388 0 6.32812V7.73438C0 8.89748 0.946266 9.84375 2.10938 9.84375H4.92188C6.08498 9.84375 7.03125 8.89748 7.03125 7.73438V6.32812C7.03125 5.94042 7.34667 5.625 7.73438 5.625H16.2656C16.6533 5.625 16.9688 5.94042 16.9688 6.32812V7.73438C16.9688 8.89748 17.915 9.84375 19.0781 9.84375H21.8906C23.0537 9.84375 24 8.89748 24 7.73438V6.32812C24 2.8388 21.1612 0 17.6719 0ZM5.625 7.73438C5.625 8.12208 5.30958 8.4375 4.92188 8.4375H2.10938C1.72167 8.4375 1.40625 8.12208 1.40625 7.73438V7.03125H5.625V7.73438ZM16.2656 4.21875H7.73438C6.81773 4.21875 6.03619 4.80666 5.74594 5.625H1.45669C1.79892 3.243 3.85294 1.40625 6.32812 1.40625H17.6719C20.1471 1.40625 22.2011 3.243 22.5433 5.625H18.2541C17.9638 4.80666 17.1823 4.21875 16.2656 4.21875ZM22.5938 7.73438C22.5938 8.12208 22.2783 8.4375 21.8906 8.4375H19.0781C18.6904 8.4375 18.375 8.12208 18.375 7.73438V7.03125H22.5938V7.73438Z" fill="#EC5937"/>
<path d="M22.3253 19.6985C18.4951 10.3867 18.7249 10.9352 18.6845 10.8678C18.3054 10.2362 17.6123 9.84375 16.8757 9.84375H15.5625V9.14062C15.5625 7.97752 14.6162 7.03125 13.4531 7.03125H10.5469C9.38377 7.03125 8.4375 7.97752 8.4375 9.14062V9.84375H7.12434C6.21361 9.84375 5.47308 10.464 5.26823 10.9621L1.67569 19.6961C1.49691 20.1261 1.40625 20.5802 1.40625 21.0458V21.8906C1.40625 23.0537 2.35252 24 3.51562 24H20.4844C21.6475 24 22.5938 23.0537 22.5938 21.8906V21.0458C22.5938 20.5801 22.503 20.1259 22.3253 19.6985ZM9.84375 9.14062C9.84375 8.75292 10.1592 8.4375 10.5469 8.4375H13.4531C13.8408 8.4375 14.1562 8.75292 14.1562 9.14062V9.84375H9.84375V9.14062ZM21.1875 21.8906C21.1875 22.2783 20.8721 22.5938 20.4844 22.5938H3.51562C3.12792 22.5938 2.8125 22.2783 2.8125 21.8906V21.0458C2.8125 20.7664 2.86688 20.4939 2.97516 20.2335L6.54511 11.5546C6.67533 11.3657 6.89339 11.25 7.12434 11.25C7.34053 11.25 16.3422 11.25 16.8757 11.25C17.1066 11.25 17.3247 11.3657 17.4549 11.5546L21.0259 20.236C21.1331 20.4939 21.1875 20.7664 21.1875 21.0458V21.8906Z" fill="#EC5937"/>
<path d="M12.0469 12.6562C9.72066 12.6562 7.82812 14.5488 7.82812 16.875C7.82812 19.2012 9.72066 21.0938 12.0469 21.0938C14.3731 21.0938 16.2656 19.2012 16.2656 16.875C16.2656 14.5488 14.3731 12.6562 12.0469 12.6562ZM12.0469 19.6875C10.4961 19.6875 9.23438 18.4258 9.23438 16.875C9.23438 15.3242 10.4961 14.0625 12.0469 14.0625C13.5977 14.0625 14.8594 15.3242 14.8594 16.875C14.8594 18.4258 13.5977 19.6875 12.0469 19.6875Z" fill="#EC5937"/>
<path d="M12.0469 15.4688C11.2715 15.4688 10.6406 16.0996 10.6406 16.875C10.6406 17.6504 11.2715 18.2812 12.0469 18.2812C12.8223 18.2812 13.4531 17.6504 13.4531 16.875C13.4531 16.0996 12.8223 15.4688 12.0469 15.4688Z" fill="#EC5937"/>
</g>
<defs>
<clipPath id="clip0_0_160">
<rect width="24" height="24" fill="white"/>
</clipPath>
</defs>
</svg>
