<svg width="26" height="26" viewBox="0 0 26 26" fill="none" xmlns="http://www.w3.org/2000/svg">
<path d="M19.9785 20.7609H21.4811C21.9412 20.7609 22.3142 20.3879 22.3142 19.9278V3.87562C22.3142 2.72529 21.3816 1.79277 20.2314 1.79277H15.658V0.603699H10.3421V1.79277H5.76869C4.61836 1.79277 3.68584 2.72529 3.68584 3.87562V19.9277C3.68584 20.3879 4.05885 20.7608 4.51899 20.7608H6.02155L0 25.3963H3.87073L8.58837 20.7609H17.4116L22.1293 25.3963H26L19.9785 20.7609ZM17.4116 18.1341C17.4116 17.4291 17.9831 16.8577 18.6881 16.8577C19.393 16.8577 19.9644 17.4291 19.9644 18.1341C19.9644 18.839 19.393 19.4105 18.6881 19.4105C17.9831 19.4105 17.4116 18.839 17.4116 18.1341ZM7.40104 19.4105C6.6961 19.4105 6.12466 18.839 6.12466 18.1341C6.12466 17.4291 6.6961 16.8577 7.40104 16.8577C8.10597 16.8577 8.67746 17.4291 8.67746 18.1341C8.67746 18.839 8.10597 19.4105 7.40104 19.4105ZM6.17526 12.8107C5.94521 12.8107 5.7587 12.6242 5.7587 12.3941V4.32756C5.7587 4.09751 5.94521 3.91101 6.17526 3.91101H19.8248C20.0548 3.91101 20.2413 4.09751 20.2413 4.32756V12.3941C20.2413 12.6242 20.0548 12.8107 19.8248 12.8107H6.17526Z" fill="#4D4D4D"/>
</svg>
