<svg width="26" height="26" viewBox="0 0 26 26" fill="none" xmlns="http://www.w3.org/2000/svg">
<path d="M25.4849 17.8959V12.9026C25.4849 12.7934 25.4406 12.6895 25.3612 12.6145L22.5078 9.91998C22.4342 9.84972 22.3352 9.81086 22.2355 9.81086H18.5885C18.3698 9.81086 18.1922 9.98834 18.1922 10.2071V17.8959H17.3197V5.42483C17.3197 4.85817 16.861 4.39746 16.2924 4.39746H1.70105C1.13452 4.39746 0.673745 4.85817 0.673745 5.42483V17.8959H0V19.4811H2.07932C2.31924 20.6886 3.38668 21.6025 4.66257 21.6025C5.61545 21.6025 6.45345 21.0937 6.91514 20.3333C7.37909 21.0937 8.21483 21.6025 9.16772 21.6025C10.4455 21.6025 11.5132 20.6886 11.754 19.4811H19.253C19.4937 20.6886 20.5607 21.6025 21.8392 21.6025C23.1152 21.6025 24.1826 20.6886 24.4226 19.4811H25.9999V17.8959H25.4849V17.8959ZM4.66264 20.2541C3.95242 20.2541 3.37633 19.6761 3.37633 18.9658C3.37633 18.2555 3.95249 17.678 4.66264 17.678C5.37278 17.678 5.95212 18.2555 5.95212 18.9658C5.95212 19.6761 5.37278 20.2541 4.66264 20.2541ZM9.16779 20.2541C8.45743 20.2541 7.88134 19.6761 7.88134 18.9658C7.88134 18.2555 8.4575 17.678 9.16779 17.678C9.878 17.678 10.4573 18.2555 10.4573 18.9658C10.4573 19.6761 9.878 20.2541 9.16779 20.2541ZM21.8393 20.2541C21.129 20.2541 20.5498 19.6761 20.5498 18.9658C20.5498 18.2555 21.129 17.678 21.8393 17.678C22.5498 17.678 23.1257 18.2555 23.1257 18.9658C23.1257 19.6761 22.5498 20.2541 21.8393 20.2541ZM23.6951 14.0784H19.6664V11.3838H21.8157L23.695 13.1562V14.0784H23.6951Z" fill="#4D4D4D"/>
</svg>
