<svg width="32" height="24" viewBox="0 0 32 24" fill="none" xmlns="http://www.w3.org/2000/svg">
<path d="M7.46672 17.0667C5.70191 17.0667 4.26672 18.5019 4.26672 20.2667C4.26672 22.0315 5.70191 23.4667 7.46672 23.4667C9.23154 23.4667 10.6667 22.0315 10.6667 20.2667C10.6667 18.5019 9.23147 17.0667 7.46672 17.0667ZM7.46672 22.4C6.29016 22.4 5.33341 21.4432 5.33341 20.2667C5.33341 19.0901 6.29022 18.1334 7.46672 18.1334C8.64322 18.1334 9.60004 19.0902 9.60004 20.2667C9.60004 21.4432 8.64322 22.4 7.46672 22.4Z" fill="#EC5937"/>
<path d="M25.6 17.0667C23.8352 17.0667 22.4 18.5019 22.4 20.2667C22.4 22.0315 23.8352 23.4667 25.6 23.4667C27.3648 23.4667 28.8 22.0315 28.8 20.2667C28.8 18.5019 27.3648 17.0667 25.6 17.0667ZM25.6 22.4C24.4234 22.4 23.4667 21.4432 23.4667 20.2667C23.4667 19.0901 24.4235 18.1334 25.6 18.1334C26.7766 18.1334 27.7333 19.0902 27.7333 20.2667C27.7333 21.4432 26.7766 22.4 25.6 22.4Z" fill="#EC5937"/>
<path d="M31.9152 14.1116L27.1152 6.6449C27.0171 6.49234 26.848 6.40009 26.6666 6.40009H20.8C20.5051 6.40009 20.2667 6.63902 20.2667 6.9334V20.2667C20.2667 20.5616 20.5051 20.8 20.8 20.8H22.9333V19.7333H21.3333V7.46677H26.3754L30.9333 14.5569V19.7335H28.2666V20.8001H31.4666C31.7616 20.8001 31.9999 20.5617 31.9999 20.2668V14.4001C32 14.2982 31.9707 14.1974 31.9152 14.1116Z" fill="#EC5937"/>
<path d="M23.4667 13.3333V9.60001H27.7334V8.53333H22.9334C22.6384 8.53333 22.4001 8.77226 22.4001 9.06664V13.8666C22.4001 14.1616 22.6384 14.4 22.9334 14.4H30.9334V13.3333H23.4667V13.3333Z" fill="#EC5937"/>
<path d="M20.8 2.66669H0.533312C0.238937 2.66669 0 2.90562 0 3.2V20.2667C0 20.5616 0.238937 20.8 0.533312 20.8H4.8V19.7333H1.06669V3.73331H20.2667V19.7333H10.1333V20.8H20.8C21.0949 20.8 21.3333 20.5616 21.3333 20.2667V3.2C21.3333 2.90562 21.0949 2.66669 20.8 2.66669Z" fill="#EC5937"/>
<path d="M3.73329 17.6H0.533295V18.6667H3.73329V17.6Z" fill="#EC5937"/>
<path d="M20.2667 17.6H11.2V18.6667H20.2667V17.6Z" fill="#EC5937"/>
<path d="M31.4666 17.6H29.3333V18.6667H31.4666V17.6Z" fill="#EC5937"/>
<path d="M20.8 4.80005H2.1333V5.86674H20.8V4.80005Z" fill="#EC5937"/>
<path d="M8.00001 19.7334H6.93332V20.8001H8.00001V19.7334Z" fill="#EC5937"/>
<path d="M26.1334 19.7334H25.0667V20.8001H26.1334V19.7334Z" fill="#EC5937"/>
<path d="M9.59999 0.533325H2.1333V1.60001H9.59999V0.533325Z" fill="#EC5937"/>
<path d="M1.06669 0.533325H0V1.60001H1.06669V0.533325Z" fill="#EC5937"/>
</svg>
